# Generated with liteGL.js by Javi Agenjo

v 10.0320 -13.8300 -1.4000
v 10.0320 -13.8300 1.4000
v 0.0000 -17.0900 -1.4000
v 0.0000 -17.0900 1.4000
v -10.0320 -13.8300 -1.4000
v -10.0320 -13.8300 1.4000
v -16.2300 -5.2980 -1.4000
v -16.2300 -5.2980 1.4000
v -16.2300 5.2500 -1.4000
v -16.2300 5.2500 1.4000
v -10.0320 13.7840 -1.4000
v -10.0320 13.7840 1.4000
v -10.0320 13.7840 -1.4000
v -10.0320 13.7840 1.4000
v 0.0000 17.0420 -1.4000
v 0.0000 17.0420 1.4000
v 10.0320 13.7840 -1.4000
v 10.0320 13.7840 1.4000
v 16.2300 5.2500 -1.4000
v 16.2300 5.2500 1.4000
v 16.2300 -5.2980 -1.4000
v 16.2300 -5.2980 1.4000
v 10.0320 -13.8300 -1.4000
v 10.0320 -13.8300 1.4000
v 16.2300 -5.2980 1.4000
v 16.2300 5.2500 1.4000
v 10.0320 -13.8300 1.4000
v 10.0320 13.7840 1.4000
v 0.0000 17.0420 1.4000
v -10.0320 13.7840 1.4000
v -16.2300 5.2500 1.4000
v -16.2300 -5.2980 1.4000
v -10.0320 -13.8300 1.4000
v 0.0000 -17.0900 1.4000
v 0.0000 -17.0900 -1.4000
v -10.0320 -13.8300 -1.4000
v 10.0320 -13.8300 -1.4000
v -16.2300 -5.2980 -1.4000
v -16.2300 5.2500 -1.4000
v -10.0320 13.7840 -1.4000
v 0.0000 17.0420 -1.4000
v 10.0320 13.7840 -1.4000
v 16.2300 5.2500 -1.4000
v 16.2300 -5.2980 -1.4000

vn 0.0031 -0.0095 0.0000
vn 0.0031 -0.0095 0.0000
vn 0.0011 -0.0099 0.0000
vn -0.0011 -0.0099 0.0000
vn -0.0050 -0.0087 0.0000
vn -0.0067 -0.0074 0.0000
vn -0.0091 -0.0041 0.0000
vn -0.0098 -0.0021 0.0000
vn -0.0098 0.0021 0.0000
vn -0.0091 0.0041 0.0000
vn -0.0081 0.0059 0.0000
vn -0.0081 0.0059 0.0000
vn -0.0031 0.0095 0.0000
vn -0.0031 0.0095 0.0000
vn -0.0011 0.0099 0.0000
vn 0.0011 0.0099 0.0000
vn 0.0050 0.0087 0.0000
vn 0.0067 0.0074 0.0000
vn 0.0091 0.0041 0.0000
vn 0.0098 0.0021 0.0000
vn 0.0098 -0.0021 0.0000
vn 0.0091 -0.0041 0.0000
vn 0.0081 -0.0059 0.0000
vn 0.0081 -0.0059 0.0000
vn 0.0000 0.0000 0.0100
vn 0.0000 0.0000 0.0100
vn 0.0000 0.0000 0.0100
vn 0.0000 0.0000 0.0100
vn 0.0000 0.0000 0.0100
vn 0.0000 0.0000 0.0100
vn 0.0000 0.0000 0.0100
vn 0.0000 0.0000 0.0100
vn 0.0000 0.0000 0.0100
vn 0.0000 0.0000 0.0100
vn 0.0000 0.0000 -0.0100
vn 0.0000 0.0000 -0.0100
vn 0.0000 0.0000 -0.0100
vn 0.0000 0.0000 -0.0100
vn 0.0000 0.0000 -0.0100
vn 0.0000 0.0000 -0.0100
vn 0.0000 0.0000 -0.0100
vn 0.0000 0.0000 -0.0100
vn 0.0000 0.0000 -0.0100
vn 0.0000 0.0000 -0.0100

vt 0.9762 0.8835  0.0000
vt 0.9762 0.9874  0.0000
vt 0.9504 0.8835  0.0000
vt 0.9504 0.9874  0.0000
vt 0.9245 0.8835  0.0000
vt 0.9245 0.9874  0.0000
vt 0.8987 0.8835  0.0000
vt 0.8987 0.9874  0.0000
vt 0.8729 0.8835  0.0000
vt 0.8729 0.9874  0.0000
vt 0.8471 0.8835  0.0000
vt 0.8471 0.9874  0.0000
vt 0.1507 0.8835  0.0000
vt 0.1507 0.9874  0.0000
vt 0.1249 0.8835  0.0000
vt 0.1249 0.9874  0.0000
vt 0.0991 0.8835  0.0000
vt 0.0991 0.9874  0.0000
vt 0.0732 0.8835  0.0000
vt 0.0732 0.9874  0.0000
vt 0.0474 0.8835  0.0000
vt 0.0474 0.9874  0.0000
vt 0.0216 0.8835  0.0000
vt 0.0216 0.9874  0.0000
vt 0.3455 0.0000  0.0000
vt 0.6545 0.0000  0.0000
vt 0.0955 0.1910  0.0000
vt 0.9045 0.1910  0.0000
vt 1.0000 0.5000  0.0000
vt 0.9045 0.8090  0.0000
vt 0.6545 1.0000  0.0000
vt 0.3455 1.0000  0.0000
vt 0.0955 0.8090  0.0000
vt 0.0000 0.5000  0.0000
vt 0.0000 0.5000  0.0000
vt 0.0955 0.8090  0.0000
vt 0.0955 0.1910  0.0000
vt 0.3455 1.0000  0.0000
vt 0.6545 1.0000  0.0000
vt 0.9045 0.8090  0.0000
vt 1.0000 0.5000  0.0000
vt 0.9045 0.1910  0.0000
vt 0.6545 0.0000  0.0000
vt 0.3455 0.0000  0.0000

g mesh
f 1/1/1 2/2/2 3/3/3
f 2/2/2 4/4/4 3/3/3
f 3/3/3 4/4/4 5/5/5
f 4/4/4 6/6/6 5/5/5
f 5/5/5 6/6/6 7/7/7
f 6/6/6 8/8/8 7/7/7
f 7/7/7 8/8/8 9/9/9
f 8/8/8 10/10/10 9/9/9
f 9/9/9 10/10/10 11/11/11
f 10/10/10 12/12/12 11/11/11
f 13/13/13 14/14/14 15/15/15
f 14/14/14 16/16/16 15/15/15
f 15/15/15 16/16/16 17/17/17
f 16/16/16 18/18/18 17/17/17
f 17/17/17 18/18/18 19/19/19
f 18/18/18 20/20/20 19/19/19
f 19/19/19 20/20/20 21/21/21
f 20/20/20 22/22/22 21/21/21
f 22/22/22 23/23/23 21/21/21
f 24/24/24 23/23/23 22/22/22
f 25/25/25 26/26/26 27/27/27
f 26/26/26 28/28/28 27/27/27
f 28/28/28 29/29/29 27/27/27
f 29/29/29 30/30/30 27/27/27
f 30/30/30 31/31/31 27/27/27
f 31/31/31 32/32/32 27/27/27
f 32/32/32 33/33/33 27/27/27
f 33/33/33 34/34/34 27/27/27
f 35/35/35 36/36/36 37/37/37
f 36/36/36 38/38/38 37/37/37
f 38/38/38 39/39/39 37/37/37
f 39/39/39 40/40/40 37/37/37
f 40/40/40 41/41/41 37/37/37
f 41/41/41 42/42/42 37/37/37
f 42/42/42 43/43/43 37/37/37
f 43/43/43 44/44/44 37/37/37
