# Generated with liteGL.js by Javi Agenjo

v 1.8547 0.0000 1.7520
v 1.7957 0.0000 1.7717
v 1.7957 0.0000 -1.7717
v 1.8547 0.0000 -1.7520
v 1.8744 0.0000 -1.6929
v 1.8744 0.0000 1.6929
v 1.8744 0.0000 1.6929
v 1.8744 0.0000 -1.6929
v 1.8744 0.1181 -1.6929
v 1.8744 0.1181 1.6929
v 1.7957 0.0000 -1.7717
v -1.6366 0.0000 -1.7717
v -1.6366 0.1181 -1.7717
v 1.7957 0.1181 -1.7717
v -1.8294 0.0000 -1.5800
v -1.8294 0.0000 1.6929
v -1.8294 0.1181 1.6929
v -1.8294 0.1181 -1.5800
v -1.7507 0.0000 1.7717
v 1.7957 0.0000 1.7717
v 1.7957 0.1181 1.7717
v -1.7507 0.1181 1.7717
v 1.8547 0.0000 -1.7520
v 1.8547 0.1181 -1.7520
v 1.8547 0.1181 1.7520
v 1.8547 0.0000 1.7520
v -1.6366 0.0000 -1.7717
v -1.8294 0.0000 -1.5800
v -1.8294 0.1181 -1.5800
v -1.6366 0.1181 -1.7717
v -1.8097 0.0000 1.7520
v -1.8097 0.1181 1.7520
v 1.8547 0.1181 -1.7520
v 1.8547 0.0000 -1.7520
v 1.8547 0.0000 1.7520
v 1.8547 0.1181 1.7520
v -1.8097 0.1181 1.7520
v -1.8097 0.0000 1.7520
v -1.8097 0.0000 1.7520
v -1.8294 0.0000 1.6929
v -1.8294 0.0000 -1.5800
v -1.6366 0.0000 -1.7717
v -1.7507 0.0000 1.7717
v -1.8294 0.1181 1.6929
v -1.8097 0.1181 1.7520
v -1.7507 0.1181 1.7717
v -1.8294 0.1181 -1.5800
v -1.6366 0.1181 -1.7717
v 1.8547 0.1181 1.7520
v 1.8744 0.1181 1.6929
v 1.8744 0.1181 -1.6929
v 1.8547 0.1181 -1.7520
v 1.7957 0.1181 -1.7717
v 1.7957 0.1181 1.7717
v 1.4722 0.1181 -1.6642
v 1.6140 0.1181 -1.6642
v 1.4722 0.1181 -1.4821
v 1.6140 0.1181 -1.4821
v 1.4722 0.0000 -1.4821
v 1.6140 0.0000 -1.4821
v 1.4722 0.0000 -1.6642
v 1.6140 0.0000 -1.6642
v 1.6140 0.1181 -1.6642
v 1.4722 0.1181 -1.6642
v 1.4722 0.0000 -1.6642
v 1.6140 0.0000 -1.6642
v 1.4722 0.1181 -1.6642
v 1.4722 0.1181 -1.4821
v 1.4722 0.0000 -1.4821
v 1.4722 0.0000 -1.6642
v 1.4722 0.1181 -1.4821
v 1.6140 0.1181 -1.4821
v 1.6140 0.0000 -1.4821
v 1.4722 0.0000 -1.4821
v 1.6140 0.1181 -1.4821
v 1.6140 0.1181 -1.6642
v 1.6140 0.0000 -1.6642
v 1.6140 0.0000 -1.4821

vn 0.0000 -1.0000 0.0000
vn 0.0000 -1.0000 0.0000
vn 0.0000 -1.0000 0.0000
vn 0.0000 -1.0000 0.0000
vn 0.0000 -1.0000 0.0000
vn 0.0000 -1.0000 0.0000
vn 0.9871 0.0000 0.1602
vn 0.9871 0.0000 -0.1602
vn 0.9871 0.0000 -0.1602
vn 0.9871 0.0000 0.1602
vn 0.1602 0.0000 -0.9871
vn 0.0000 0.0000 -1.0000
vn 0.0000 0.0000 -1.0000
vn 0.1602 0.0000 -0.9871
vn -1.0000 0.0000 0.0000
vn -0.9871 0.0000 0.1602
vn -0.9871 0.0000 0.1602
vn -1.0000 0.0000 0.0000
vn -0.1602 0.0000 0.9871
vn 0.1602 0.0000 0.9871
vn 0.1602 0.0000 0.9871
vn -0.1602 0.0000 0.9871
vn 0.7071 0.0000 -0.7071
vn 0.7071 0.0000 -0.7071
vn 0.7071 0.0000 0.7071
vn 0.7071 0.0000 0.7071
vn -0.7049 0.0000 -0.7093
vn -0.7049 0.0000 -0.7093
vn -0.7049 0.0000 -0.7093
vn -0.7049 0.0000 -0.7093
vn -0.7071 0.0000 0.7071
vn -0.7071 0.0000 0.7071
vn 0.7071 0.0000 -0.7071
vn 0.7071 0.0000 -0.7071
vn 0.7071 0.0000 0.7071
vn 0.7071 0.0000 0.7071
vn -0.7071 0.0000 0.7071
vn -0.7071 0.0000 0.7071
vn 0.0000 -1.0000 0.0000
vn 0.0000 -1.0000 0.0000
vn 0.0000 -1.0000 0.0000
vn 0.0000 -1.0000 0.0000
vn 0.0000 -1.0000 0.0000
vn 0.0000 1.0000 0.0000
vn 0.0000 1.0000 0.0000
vn 0.0000 1.0000 0.0000
vn 0.0000 1.0000 0.0000
vn 0.0000 1.0000 0.0000
vn 0.0000 1.0000 0.0000
vn 0.0000 1.0000 0.0000
vn 0.0000 1.0000 0.0000
vn 0.0000 1.0000 0.0000
vn 0.0000 1.0000 0.0000
vn 0.0000 1.0000 0.0000
vn 0.0000 1.0000 0.0000
vn 0.0000 1.0000 0.0000
vn 0.0000 1.0000 0.0000
vn 0.0000 1.0000 0.0000
vn 0.0000 -1.0000 0.0000
vn 0.0000 -1.0000 0.0000
vn 0.0000 -1.0000 0.0000
vn 0.0000 -1.0000 0.0000
vn 0.0000 0.0000 1.0000
vn 0.0000 0.0000 1.0000
vn 0.0000 0.0000 1.0000
vn 0.0000 0.0000 1.0000
vn 1.0000 0.0000 0.0000
vn 1.0000 0.0000 0.0000
vn 1.0000 0.0000 0.0000
vn 1.0000 0.0000 0.0000
vn 0.0000 0.0000 -1.0000
vn 0.0000 0.0000 -1.0000
vn 0.0000 0.0000 -1.0000
vn 0.0000 0.0000 -1.0000
vn -1.0000 0.0000 0.0000
vn -1.0000 0.0000 0.0000
vn -1.0000 0.0000 0.0000
vn -1.0000 0.0000 0.0000

vt 0.5209 0.9930  0.0000
vt 0.5184 0.9854  0.0000
vt 0.9753 0.9854  0.0000
vt 0.9728 0.9930  0.0000
vt 0.9652 0.9955  0.0000
vt 0.5286 0.9955  0.0000
vt 0.5286 0.0036  0.0000
vt 0.9652 0.0036  0.0000
vt 0.9652 0.0188  0.0000
vt 0.5286 0.0188  0.0000
vt 0.9929 0.0321  0.0000
vt 0.9929 0.4747  0.0000
vt 0.9777 0.4747  0.0000
vt 0.9777 0.0321  0.0000
vt 0.9506 0.5160  0.0000
vt 0.5286 0.5160  0.0000
vt 0.5286 0.5008  0.0000
vt 0.9506 0.5008  0.0000
vt 0.4981 0.9801  0.0000
vt 0.4981 0.5228  0.0000
vt 0.5133 0.5228  0.0000
vt 0.5133 0.9801  0.0000
vt 0.9728 0.0036  0.0000
vt 0.9728 0.0188  0.0000
vt 0.5209 0.0188  0.0000
vt 0.5209 0.0036  0.0000
vt 0.9929 0.4747  0.0000
vt 0.9929 0.4996  0.0000
vt 0.9777 0.4996  0.0000
vt 0.9777 0.4747  0.0000
vt 0.5209 0.5160  0.0000
vt 0.5209 0.5008  0.0000
vt 0.9777 0.0245  0.0000
vt 0.9929 0.0245  0.0000
vt 0.4981 0.5152  0.0000
vt 0.5133 0.5152  0.0000
vt 0.5133 0.9878  0.0000
vt 0.4981 0.9878  0.0000
vt 0.5209 0.5204  0.0000
vt 0.5286 0.5179  0.0000
vt 0.9506 0.5179  0.0000
vt 0.9753 0.5428  0.0000
vt 0.5184 0.5281  0.0000
vt 0.5286 0.4996  0.0000
vt 0.5209 0.4970  0.0000
vt 0.5184 0.4894  0.0000
vt 0.9506 0.4996  0.0000
vt 0.9753 0.4747  0.0000
vt 0.5209 0.0245  0.0000
vt 0.5286 0.0219  0.0000
vt 0.9652 0.0219  0.0000
vt 0.9728 0.0245  0.0000
vt 0.9753 0.0321  0.0000
vt 0.5184 0.0321  0.0000
vt 0.9615 0.0738  0.0000
vt 0.9615 0.0555  0.0000
vt 0.9380 0.0738  0.0000
vt 0.9380 0.0555  0.0000
vt 0.9380 0.9437  0.0000
vt 0.9380 0.9620  0.0000
vt 0.9615 0.9437  0.0000
vt 0.9615 0.9620  0.0000
vt 0.0227 0.5982  0.0000
vt 0.0227 0.6165  0.0000
vt 0.0075 0.6165  0.0000
vt 0.0075 0.5982  0.0000
vt 0.0220 0.6296  0.0000
vt 0.0220 0.6530  0.0000
vt 0.0068 0.6530  0.0000
vt 0.0068 0.6296  0.0000
vt 0.0230 0.6648  0.0000
vt 0.0230 0.6831  0.0000
vt 0.0078 0.6831  0.0000
vt 0.0078 0.6648  0.0000
vt 0.0233 0.6923  0.0000
vt 0.0233 0.7158  0.0000
vt 0.0081 0.7158  0.0000
vt 0.0081 0.6923  0.0000

g mesh
f 1/1/1 2/2/2 3/3/3
f 3/3/3 4/4/4 5/5/5
f 1/1/1 3/3/3 5/5/5
f 6/6/6 1/1/1 5/5/5
f 7/7/7 8/8/8 9/9/9
f 9/9/9 10/10/10 7/7/7
f 11/11/11 12/12/12 13/13/13
f 13/13/13 14/14/14 11/11/11
f 15/15/15 16/16/16 17/17/17
f 17/17/17 18/18/18 15/15/15
f 19/19/19 20/20/20 21/21/21
f 21/21/21 22/22/22 19/19/19
f 23/23/23 24/24/24 9/9/9
f 9/9/9 8/8/8 23/23/23
f 25/25/25 26/26/26 7/7/7
f 7/7/7 10/10/10 25/25/25
f 27/27/27 28/28/28 29/29/29
f 29/29/29 30/30/30 27/27/27
f 31/31/31 32/32/32 17/17/17
f 17/17/17 16/16/16 31/31/31
f 11/11/11 14/14/14 33/33/33
f 33/33/33 34/34/34 11/11/11
f 21/21/21 20/20/20 35/35/35
f 35/35/35 36/36/36 21/21/21
f 19/19/19 22/22/22 37/37/37
f 37/37/37 38/38/38 19/19/19
f 39/39/39 40/40/40 41/41/41
f 39/39/39 41/41/41 42/42/42
f 43/43/43 39/39/39 42/42/42
f 44/44/44 45/45/45 46/46/46
f 47/47/47 44/44/44 46/46/46
f 48/48/48 47/47/47 46/46/46
f 49/49/49 50/50/50 51/51/51
f 51/51/51 52/52/52 53/53/53
f 49/49/49 51/51/51 53/53/53
f 54/54/54 49/49/49 53/53/53
f 53/53/53 48/48/48 55/55/55
f 55/55/55 56/56/56 53/53/53
f 48/48/48 46/46/46 57/57/57
f 57/57/57 55/55/55 48/48/48
f 46/46/46 54/54/54 58/58/58
f 58/58/58 57/57/57 46/46/46
f 54/54/54 53/53/53 56/56/56
f 56/56/56 58/58/58 54/54/54
f 2/2/2 43/43/43 59/59/59
f 59/59/59 60/60/60 2/2/2
f 43/43/43 42/42/42 61/61/61
f 61/61/61 59/59/59 43/43/43
f 42/42/42 3/3/3 62/62/62
f 62/62/62 61/61/61 42/42/42
f 3/3/3 2/2/2 60/60/60
f 60/60/60 62/62/62 3/3/3
f 63/63/63 64/64/64 65/65/65
f 65/65/65 66/66/66 63/63/63
f 67/67/67 68/68/68 69/69/69
f 69/69/69 70/70/70 67/67/67
f 71/71/71 72/72/72 73/73/73
f 73/73/73 74/74/74 71/71/71
f 75/75/75 76/76/76 77/77/77
f 77/77/77 78/78/78 75/75/75
