# Generated with liteGL.js by Javi Agenjo

v -600.0000 250.0000 -600.0000
v -600.0000 -250.0000 -600.0000
v 600.0000 250.0000 -600.0000
v 600.0000 -250.0000 -600.0000
v 600.0000 250.0000 -600.0000
v -600.0000 -250.0000 -600.0000
v 600.0000 -250.0000 600.0000
v -600.0000 -250.0000 600.0000
v 600.0000 250.0000 600.0000
v -600.0000 250.0000 600.0000
v 600.0000 250.0000 600.0000
v -600.0000 -250.0000 600.0000
v 600.0000 -250.0000 -600.0000
v -600.0000 -250.0000 -600.0000
v 600.0000 -250.0000 600.0000
v -600.0000 -250.0000 600.0000
v 600.0000 -250.0000 600.0000
v -600.0000 -250.0000 -600.0000
v 600.0000 250.0000 -600.0000
v 600.0000 -250.0000 -600.0000
v 600.0000 250.0000 600.0000
v 600.0000 -250.0000 600.0000
v 600.0000 250.0000 600.0000
v 600.0000 -250.0000 -600.0000
v -600.0000 250.0000 -600.0000
v 600.0000 250.0000 -600.0000
v -600.0000 250.0000 600.0000
v 600.0000 250.0000 600.0000
v -600.0000 250.0000 600.0000
v 600.0000 250.0000 -600.0000
v -600.0000 -250.0000 -600.0000
v -600.0000 250.0000 -600.0000
v -600.0000 -250.0000 600.0000
v -600.0000 250.0000 600.0000
v -600.0000 -250.0000 600.0000
v -600.0000 250.0000 -600.0000

vn 0.0000 0.0000 0.0833
vn 0.0000 0.0000 0.0833
vn 0.0000 0.0000 0.0833
vn 0.0000 0.0000 0.0833
vn 0.0000 0.0000 0.0833
vn 0.0000 0.0000 0.0833
vn 0.0000 0.0000 -0.0833
vn 0.0000 0.0000 -0.0833
vn 0.0000 0.0000 -0.0833
vn 0.0000 0.0000 -0.0833
vn 0.0000 0.0000 -0.0833
vn 0.0000 0.0000 -0.0833
vn 0.0000 0.2000 0.0000
vn 0.0000 0.2000 0.0000
vn 0.0000 0.2000 0.0000
vn 0.0000 0.2000 0.0000
vn 0.0000 0.2000 0.0000
vn 0.0000 0.2000 0.0000
vn -0.0833 0.0000 0.0000
vn -0.0833 0.0000 0.0000
vn -0.0833 0.0000 0.0000
vn -0.0833 0.0000 0.0000
vn -0.0833 0.0000 0.0000
vn -0.0833 0.0000 0.0000
vn 0.0000 -0.2000 0.0000
vn 0.0000 -0.2000 0.0000
vn 0.0000 -0.2000 0.0000
vn 0.0000 -0.2000 0.0000
vn 0.0000 -0.2000 0.0000
vn 0.0000 -0.2000 0.0000
vn 0.0833 0.0000 0.0000
vn 0.0833 0.0000 0.0000
vn 0.0833 0.0000 0.0000
vn 0.0833 0.0000 0.0000
vn 0.0833 0.0000 0.0000
vn 0.0833 0.0000 0.0000

vt 0.6666 0.9966  0.0000
vt 0.5003 0.9966  0.0000
vt 0.6666 0.0024  0.0000
vt 0.5003 0.0024  0.0000
vt 0.6666 0.0024  0.0000
vt 0.5003 0.9966  0.0000
vt 0.3341 0.9966  0.0000
vt 0.3341 0.0024  0.0000
vt 0.4988 0.9966  0.0000
vt 0.4988 0.0024  0.0000
vt 0.4988 0.9966  0.0000
vt 0.3341 0.0024  0.0000
vt 0.1673 0.0024  0.0000
vt 0.3324 0.0024  0.0000
vt 0.1673 0.9966  0.0000
vt 0.3324 0.9966  0.0000
vt 0.1673 0.9966  0.0000
vt 0.3324 0.0024  0.0000
vt 0.8335 0.0024  0.0000
vt 0.9999 0.0024  0.0000
vt 0.8335 0.9966  0.0000
vt 0.9999 0.9966  0.0000
vt 0.8335 0.9966  0.0000
vt 0.9999 0.0024  0.0000
vt 0.0003 0.0024  0.0000
vt 0.1666 0.0024  0.0000
vt 0.0003 0.9966  0.0000
vt 0.1667 0.9966  0.0000
vt 0.0003 0.9966  0.0000
vt 0.1666 0.0024  0.0000
vt 0.6676 0.0024  0.0000
vt 0.8325 0.0024  0.0000
vt 0.6676 0.9966  0.0000
vt 0.8325 0.9966  0.0000
vt 0.6676 0.9966  0.0000
vt 0.8325 0.0024  0.0000

g mesh
f 1/1/1 2/2/2 3/3/3
f 4/4/4 5/5/5 6/6/6
f 7/7/7 8/8/8 9/9/9
f 10/10/10 11/11/11 12/12/12
f 13/13/13 14/14/14 15/15/15
f 16/16/16 17/17/17 18/18/18
f 19/19/19 20/20/20 21/21/21
f 22/22/22 23/23/23 24/24/24
f 25/25/25 26/26/26 27/27/27
f 28/28/28 29/29/29 30/30/30
f 31/31/31 32/32/32 33/33/33
f 34/34/34 35/35/35 36/36/36
